%TF.GenerationSoftware,KiCad,Pcbnew,(5.1.6)-1*%
%TF.CreationDate,2021-08-23T14:57:44-04:00*%
%TF.ProjectId,full-can-variable,66756c6c-2d63-4616-9e2d-766172696162,rev?*%
%TF.SameCoordinates,Original*%
%TF.FileFunction,Paste,Bot*%
%TF.FilePolarity,Positive*%
%FSLAX46Y46*%
G04 Gerber Fmt 4.6, Leading zero omitted, Abs format (unit mm)*
G04 Created by KiCad (PCBNEW (5.1.6)-1) date 2021-08-23 14:57:44*
%MOMM*%
%LPD*%
G01*
G04 APERTURE LIST*
%ADD10R,1.400000X0.300000*%
%ADD11R,1.400000X1.200000*%
G04 APERTURE END LIST*
%TO.C,C1*%
G36*
G01*
X142637500Y-96277000D02*
X143112500Y-96277000D01*
G75*
G02*
X143350000Y-96514500I0J-237500D01*
G01*
X143350000Y-97089500D01*
G75*
G02*
X143112500Y-97327000I-237500J0D01*
G01*
X142637500Y-97327000D01*
G75*
G02*
X142400000Y-97089500I0J237500D01*
G01*
X142400000Y-96514500D01*
G75*
G02*
X142637500Y-96277000I237500J0D01*
G01*
G37*
G36*
G01*
X142637500Y-98027000D02*
X143112500Y-98027000D01*
G75*
G02*
X143350000Y-98264500I0J-237500D01*
G01*
X143350000Y-98839500D01*
G75*
G02*
X143112500Y-99077000I-237500J0D01*
G01*
X142637500Y-99077000D01*
G75*
G02*
X142400000Y-98839500I0J237500D01*
G01*
X142400000Y-98264500D01*
G75*
G02*
X142637500Y-98027000I237500J0D01*
G01*
G37*
%TD*%
%TO.C,C2*%
G36*
G01*
X154006000Y-93328500D02*
X154006000Y-92853500D01*
G75*
G02*
X154243500Y-92616000I237500J0D01*
G01*
X154818500Y-92616000D01*
G75*
G02*
X155056000Y-92853500I0J-237500D01*
G01*
X155056000Y-93328500D01*
G75*
G02*
X154818500Y-93566000I-237500J0D01*
G01*
X154243500Y-93566000D01*
G75*
G02*
X154006000Y-93328500I0J237500D01*
G01*
G37*
G36*
G01*
X152256000Y-93328500D02*
X152256000Y-92853500D01*
G75*
G02*
X152493500Y-92616000I237500J0D01*
G01*
X153068500Y-92616000D01*
G75*
G02*
X153306000Y-92853500I0J-237500D01*
G01*
X153306000Y-93328500D01*
G75*
G02*
X153068500Y-93566000I-237500J0D01*
G01*
X152493500Y-93566000D01*
G75*
G02*
X152256000Y-93328500I0J237500D01*
G01*
G37*
%TD*%
%TO.C,C3*%
G36*
G01*
X152670500Y-97745000D02*
X153145500Y-97745000D01*
G75*
G02*
X153383000Y-97982500I0J-237500D01*
G01*
X153383000Y-98557500D01*
G75*
G02*
X153145500Y-98795000I-237500J0D01*
G01*
X152670500Y-98795000D01*
G75*
G02*
X152433000Y-98557500I0J237500D01*
G01*
X152433000Y-97982500D01*
G75*
G02*
X152670500Y-97745000I237500J0D01*
G01*
G37*
G36*
G01*
X152670500Y-95995000D02*
X153145500Y-95995000D01*
G75*
G02*
X153383000Y-96232500I0J-237500D01*
G01*
X153383000Y-96807500D01*
G75*
G02*
X153145500Y-97045000I-237500J0D01*
G01*
X152670500Y-97045000D01*
G75*
G02*
X152433000Y-96807500I0J237500D01*
G01*
X152433000Y-96232500D01*
G75*
G02*
X152670500Y-95995000I237500J0D01*
G01*
G37*
%TD*%
%TO.C,C4*%
G36*
G01*
X154321500Y-95995000D02*
X154796500Y-95995000D01*
G75*
G02*
X155034000Y-96232500I0J-237500D01*
G01*
X155034000Y-96807500D01*
G75*
G02*
X154796500Y-97045000I-237500J0D01*
G01*
X154321500Y-97045000D01*
G75*
G02*
X154084000Y-96807500I0J237500D01*
G01*
X154084000Y-96232500D01*
G75*
G02*
X154321500Y-95995000I237500J0D01*
G01*
G37*
G36*
G01*
X154321500Y-97745000D02*
X154796500Y-97745000D01*
G75*
G02*
X155034000Y-97982500I0J-237500D01*
G01*
X155034000Y-98557500D01*
G75*
G02*
X154796500Y-98795000I-237500J0D01*
G01*
X154321500Y-98795000D01*
G75*
G02*
X154084000Y-98557500I0J237500D01*
G01*
X154084000Y-97982500D01*
G75*
G02*
X154321500Y-97745000I237500J0D01*
G01*
G37*
%TD*%
D10*
%TO.C,U1*%
X152187000Y-102219000D03*
X152187000Y-101719000D03*
X152187000Y-101219000D03*
X152187000Y-100719000D03*
X152187000Y-100219000D03*
X147787000Y-100219000D03*
X147787000Y-100719000D03*
X147787000Y-101219000D03*
X147787000Y-101719000D03*
X147787000Y-102219000D03*
%TD*%
D11*
%TO.C,Y1*%
X148717000Y-96520000D03*
X150917000Y-96520000D03*
X150917000Y-98220000D03*
X148717000Y-98220000D03*
%TD*%
M02*
