M48
; DRILL file {KiCad (5.1.6)-1} date 08/23/21 14:57:46
; FORMAT={-:-/ absolute / inch / decimal}
; #@! TF.CreationDate,2021-08-23T14:57:46-04:00
; #@! TF.GenerationSoftware,Kicad,Pcbnew,(5.1.6)-1
FMAT,2
INCH
T1C0.0157
T2C0.0315
T3C0.0394
%
G90
G05
T1
X5.765Y-3.945
X5.775Y-3.7
X5.785Y-3.845
X5.91Y-4.03
X6.02Y-3.915
X6.05Y-3.8
X6.0641Y-3.9706
X6.115Y-3.705
X6.13Y-3.94
X6.135Y-3.665
X6.155Y-3.805
X6.17Y-4.035
X6.175Y-3.93
X6.23Y-3.92
T2
X5.6283Y-3.6958
X5.6283Y-3.9958
X6.2283Y-3.6958
X6.2283Y-3.9958
T3
X5.72Y-3.695
X5.72Y-3.795
X5.72Y-3.895
X5.72Y-3.995
T0
M30
