%TF.GenerationSoftware,KiCad,Pcbnew,(5.1.6)-1*%
%TF.CreationDate,2021-08-23T14:57:44-04:00*%
%TF.ProjectId,full-can-variable,66756c6c-2d63-4616-9e2d-766172696162,rev?*%
%TF.SameCoordinates,Original*%
%TF.FileFunction,Legend,Bot*%
%TF.FilePolarity,Positive*%
%FSLAX46Y46*%
G04 Gerber Fmt 4.6, Leading zero omitted, Abs format (unit mm)*
G04 Created by KiCad (PCBNEW (5.1.6)-1) date 2021-08-23 14:57:44*
%MOMM*%
%LPD*%
G01*
G04 APERTURE LIST*
%ADD10C,0.125000*%
%ADD11C,0.120000*%
%ADD12C,0.150000*%
%ADD13C,0.250000*%
%ADD14C,0.200000*%
%ADD15C,0.100000*%
G04 APERTURE END LIST*
D10*
X155908285Y-102381857D02*
X155789238Y-102715190D01*
X155670190Y-102381857D01*
X155384476Y-102215190D02*
X155336857Y-102215190D01*
X155289238Y-102239000D01*
X155265428Y-102262809D01*
X155241619Y-102310428D01*
X155217809Y-102405666D01*
X155217809Y-102524714D01*
X155241619Y-102619952D01*
X155265428Y-102667571D01*
X155289238Y-102691380D01*
X155336857Y-102715190D01*
X155384476Y-102715190D01*
X155432095Y-102691380D01*
X155455904Y-102667571D01*
X155479714Y-102619952D01*
X155503523Y-102524714D01*
X155503523Y-102405666D01*
X155479714Y-102310428D01*
X155455904Y-102262809D01*
X155432095Y-102239000D01*
X155384476Y-102215190D01*
X155003523Y-102667571D02*
X154979714Y-102691380D01*
X155003523Y-102715190D01*
X155027333Y-102691380D01*
X155003523Y-102667571D01*
X155003523Y-102715190D01*
X154503523Y-102715190D02*
X154789238Y-102715190D01*
X154646380Y-102715190D02*
X154646380Y-102215190D01*
X154694000Y-102286619D01*
X154741619Y-102334238D01*
X154789238Y-102358047D01*
X159365142Y-100206666D02*
X159031809Y-100111428D01*
X159269904Y-100016190D01*
X159031809Y-99920952D01*
X159365142Y-99825714D01*
X159031809Y-99635238D02*
X159365142Y-99635238D01*
X159531809Y-99635238D02*
X159508000Y-99659047D01*
X159484190Y-99635238D01*
X159508000Y-99611428D01*
X159531809Y-99635238D01*
X159484190Y-99635238D01*
X159031809Y-99397142D02*
X159365142Y-99397142D01*
X159269904Y-99397142D02*
X159317523Y-99373333D01*
X159341333Y-99349523D01*
X159365142Y-99301904D01*
X159365142Y-99254285D01*
X159055619Y-98897142D02*
X159031809Y-98944761D01*
X159031809Y-99040000D01*
X159055619Y-99087619D01*
X159103238Y-99111428D01*
X159293714Y-99111428D01*
X159341333Y-99087619D01*
X159365142Y-99040000D01*
X159365142Y-98944761D01*
X159341333Y-98897142D01*
X159293714Y-98873333D01*
X159246095Y-98873333D01*
X159198476Y-99111428D01*
X159365142Y-98730476D02*
X159365142Y-98540000D01*
X159531809Y-98659047D02*
X159103238Y-98659047D01*
X159055619Y-98635238D01*
X159031809Y-98587619D01*
X159031809Y-98540000D01*
X159031809Y-98159047D02*
X159293714Y-98159047D01*
X159341333Y-98182857D01*
X159365142Y-98230476D01*
X159365142Y-98325714D01*
X159341333Y-98373333D01*
X159055619Y-98159047D02*
X159031809Y-98206666D01*
X159031809Y-98325714D01*
X159055619Y-98373333D01*
X159103238Y-98397142D01*
X159150857Y-98397142D01*
X159198476Y-98373333D01*
X159222285Y-98325714D01*
X159222285Y-98206666D01*
X159246095Y-98159047D01*
X159365142Y-97920952D02*
X158865142Y-97920952D01*
X159341333Y-97920952D02*
X159365142Y-97873333D01*
X159365142Y-97778095D01*
X159341333Y-97730476D01*
X159317523Y-97706666D01*
X159269904Y-97682857D01*
X159127047Y-97682857D01*
X159079428Y-97706666D01*
X159055619Y-97730476D01*
X159031809Y-97778095D01*
X159031809Y-97873333D01*
X159055619Y-97920952D01*
X159484190Y-97111428D02*
X159508000Y-97087619D01*
X159531809Y-97040000D01*
X159531809Y-96920952D01*
X159508000Y-96873333D01*
X159484190Y-96849523D01*
X159436571Y-96825714D01*
X159388952Y-96825714D01*
X159317523Y-96849523D01*
X159031809Y-97135238D01*
X159031809Y-96825714D01*
X159531809Y-96516190D02*
X159531809Y-96468571D01*
X159508000Y-96420952D01*
X159484190Y-96397142D01*
X159436571Y-96373333D01*
X159341333Y-96349523D01*
X159222285Y-96349523D01*
X159127047Y-96373333D01*
X159079428Y-96397142D01*
X159055619Y-96420952D01*
X159031809Y-96468571D01*
X159031809Y-96516190D01*
X159055619Y-96563809D01*
X159079428Y-96587619D01*
X159127047Y-96611428D01*
X159222285Y-96635238D01*
X159341333Y-96635238D01*
X159436571Y-96611428D01*
X159484190Y-96587619D01*
X159508000Y-96563809D01*
X159531809Y-96516190D01*
X159484190Y-96159047D02*
X159508000Y-96135238D01*
X159531809Y-96087619D01*
X159531809Y-95968571D01*
X159508000Y-95920952D01*
X159484190Y-95897142D01*
X159436571Y-95873333D01*
X159388952Y-95873333D01*
X159317523Y-95897142D01*
X159031809Y-96182857D01*
X159031809Y-95873333D01*
X159031809Y-95397142D02*
X159031809Y-95682857D01*
X159031809Y-95540000D02*
X159531809Y-95540000D01*
X159460380Y-95587619D01*
X159412761Y-95635238D01*
X159388952Y-95682857D01*
X143744190Y-95353476D02*
X144101333Y-95353476D01*
X144172761Y-95329666D01*
X144220380Y-95282047D01*
X144244190Y-95210619D01*
X144244190Y-95163000D01*
X144244190Y-95829666D02*
X144244190Y-95591571D01*
X143744190Y-95591571D01*
X144196571Y-96282047D02*
X144220380Y-96258238D01*
X144244190Y-96186809D01*
X144244190Y-96139190D01*
X144220380Y-96067761D01*
X144172761Y-96020142D01*
X144125142Y-95996333D01*
X144029904Y-95972523D01*
X143958476Y-95972523D01*
X143863238Y-95996333D01*
X143815619Y-96020142D01*
X143768000Y-96067761D01*
X143744190Y-96139190D01*
X143744190Y-96186809D01*
X143768000Y-96258238D01*
X143791809Y-96282047D01*
X143744190Y-96639190D02*
X144101333Y-96639190D01*
X144172761Y-96615380D01*
X144220380Y-96567761D01*
X144244190Y-96496333D01*
X144244190Y-96448714D01*
X144244190Y-97115380D02*
X144244190Y-96877285D01*
X143744190Y-96877285D01*
X144196571Y-97567761D02*
X144220380Y-97543952D01*
X144244190Y-97472523D01*
X144244190Y-97424904D01*
X144220380Y-97353476D01*
X144172761Y-97305857D01*
X144125142Y-97282047D01*
X144029904Y-97258238D01*
X143958476Y-97258238D01*
X143863238Y-97282047D01*
X143815619Y-97305857D01*
X143768000Y-97353476D01*
X143744190Y-97424904D01*
X143744190Y-97472523D01*
X143768000Y-97543952D01*
X143791809Y-97567761D01*
X143744190Y-97924904D02*
X144101333Y-97924904D01*
X144172761Y-97901095D01*
X144220380Y-97853476D01*
X144244190Y-97782047D01*
X144244190Y-97734428D01*
X144244190Y-98401095D02*
X144244190Y-98163000D01*
X143744190Y-98163000D01*
X144196571Y-98853476D02*
X144220380Y-98829666D01*
X144244190Y-98758238D01*
X144244190Y-98710619D01*
X144220380Y-98639190D01*
X144172761Y-98591571D01*
X144125142Y-98567761D01*
X144029904Y-98543952D01*
X143958476Y-98543952D01*
X143863238Y-98567761D01*
X143815619Y-98591571D01*
X143768000Y-98639190D01*
X143744190Y-98710619D01*
X143744190Y-98758238D01*
X143768000Y-98829666D01*
X143791809Y-98853476D01*
X143744190Y-99210619D02*
X144101333Y-99210619D01*
X144172761Y-99186809D01*
X144220380Y-99139190D01*
X144244190Y-99067761D01*
X144244190Y-99020142D01*
X144244190Y-99686809D02*
X144244190Y-99448714D01*
X143744190Y-99448714D01*
X144196571Y-100139190D02*
X144220380Y-100115380D01*
X144244190Y-100043952D01*
X144244190Y-99996333D01*
X144220380Y-99924904D01*
X144172761Y-99877285D01*
X144125142Y-99853476D01*
X144029904Y-99829666D01*
X143958476Y-99829666D01*
X143863238Y-99853476D01*
X143815619Y-99877285D01*
X143768000Y-99924904D01*
X143744190Y-99996333D01*
X143744190Y-100043952D01*
X143768000Y-100115380D01*
X143791809Y-100139190D01*
X150661523Y-92942285D02*
X150828190Y-92942285D01*
X150828190Y-93204190D02*
X150828190Y-92704190D01*
X150590095Y-92704190D01*
X150185333Y-92870857D02*
X150185333Y-93204190D01*
X150399619Y-92870857D02*
X150399619Y-93132761D01*
X150375809Y-93180380D01*
X150328190Y-93204190D01*
X150256761Y-93204190D01*
X150209142Y-93180380D01*
X150185333Y-93156571D01*
X149875809Y-93204190D02*
X149923428Y-93180380D01*
X149947238Y-93132761D01*
X149947238Y-92704190D01*
X149613904Y-93204190D02*
X149661523Y-93180380D01*
X149685333Y-93132761D01*
X149685333Y-92704190D01*
X148756761Y-93156571D02*
X148780571Y-93180380D01*
X148852000Y-93204190D01*
X148899619Y-93204190D01*
X148971047Y-93180380D01*
X149018666Y-93132761D01*
X149042476Y-93085142D01*
X149066285Y-92989904D01*
X149066285Y-92918476D01*
X149042476Y-92823238D01*
X149018666Y-92775619D01*
X148971047Y-92728000D01*
X148899619Y-92704190D01*
X148852000Y-92704190D01*
X148780571Y-92728000D01*
X148756761Y-92751809D01*
X148328190Y-93204190D02*
X148328190Y-92942285D01*
X148352000Y-92894666D01*
X148399619Y-92870857D01*
X148494857Y-92870857D01*
X148542476Y-92894666D01*
X148328190Y-93180380D02*
X148375809Y-93204190D01*
X148494857Y-93204190D01*
X148542476Y-93180380D01*
X148566285Y-93132761D01*
X148566285Y-93085142D01*
X148542476Y-93037523D01*
X148494857Y-93013714D01*
X148375809Y-93013714D01*
X148328190Y-92989904D01*
X148090095Y-92870857D02*
X148090095Y-93204190D01*
X148090095Y-92918476D02*
X148066285Y-92894666D01*
X148018666Y-92870857D01*
X147947238Y-92870857D01*
X147899619Y-92894666D01*
X147875809Y-92942285D01*
X147875809Y-93204190D01*
X150816285Y-93579190D02*
X150649619Y-94079190D01*
X150482952Y-93579190D01*
X150102000Y-94079190D02*
X150102000Y-93817285D01*
X150125809Y-93769666D01*
X150173428Y-93745857D01*
X150268666Y-93745857D01*
X150316285Y-93769666D01*
X150102000Y-94055380D02*
X150149619Y-94079190D01*
X150268666Y-94079190D01*
X150316285Y-94055380D01*
X150340095Y-94007761D01*
X150340095Y-93960142D01*
X150316285Y-93912523D01*
X150268666Y-93888714D01*
X150149619Y-93888714D01*
X150102000Y-93864904D01*
X149863904Y-94079190D02*
X149863904Y-93745857D01*
X149863904Y-93841095D02*
X149840095Y-93793476D01*
X149816285Y-93769666D01*
X149768666Y-93745857D01*
X149721047Y-93745857D01*
X149554380Y-94079190D02*
X149554380Y-93745857D01*
X149554380Y-93579190D02*
X149578190Y-93603000D01*
X149554380Y-93626809D01*
X149530571Y-93603000D01*
X149554380Y-93579190D01*
X149554380Y-93626809D01*
X149102000Y-94079190D02*
X149102000Y-93817285D01*
X149125809Y-93769666D01*
X149173428Y-93745857D01*
X149268666Y-93745857D01*
X149316285Y-93769666D01*
X149102000Y-94055380D02*
X149149619Y-94079190D01*
X149268666Y-94079190D01*
X149316285Y-94055380D01*
X149340095Y-94007761D01*
X149340095Y-93960142D01*
X149316285Y-93912523D01*
X149268666Y-93888714D01*
X149149619Y-93888714D01*
X149102000Y-93864904D01*
X148863904Y-94079190D02*
X148863904Y-93579190D01*
X148863904Y-93769666D02*
X148816285Y-93745857D01*
X148721047Y-93745857D01*
X148673428Y-93769666D01*
X148649619Y-93793476D01*
X148625809Y-93841095D01*
X148625809Y-93983952D01*
X148649619Y-94031571D01*
X148673428Y-94055380D01*
X148721047Y-94079190D01*
X148816285Y-94079190D01*
X148863904Y-94055380D01*
X148340095Y-94079190D02*
X148387714Y-94055380D01*
X148411523Y-94007761D01*
X148411523Y-93579190D01*
X147959142Y-94055380D02*
X148006761Y-94079190D01*
X148102000Y-94079190D01*
X148149619Y-94055380D01*
X148173428Y-94007761D01*
X148173428Y-93817285D01*
X148149619Y-93769666D01*
X148102000Y-93745857D01*
X148006761Y-93745857D01*
X147959142Y-93769666D01*
X147935333Y-93817285D01*
X147935333Y-93864904D01*
X148173428Y-93912523D01*
X149971047Y-94906571D02*
X149994857Y-94930380D01*
X150066285Y-94954190D01*
X150113904Y-94954190D01*
X150185333Y-94930380D01*
X150232952Y-94882761D01*
X150256761Y-94835142D01*
X150280571Y-94739904D01*
X150280571Y-94668476D01*
X150256761Y-94573238D01*
X150232952Y-94525619D01*
X150185333Y-94478000D01*
X150113904Y-94454190D01*
X150066285Y-94454190D01*
X149994857Y-94478000D01*
X149971047Y-94501809D01*
X149685333Y-94954190D02*
X149732952Y-94930380D01*
X149756761Y-94882761D01*
X149756761Y-94454190D01*
X149423428Y-94954190D02*
X149471047Y-94930380D01*
X149494857Y-94906571D01*
X149518666Y-94858952D01*
X149518666Y-94716095D01*
X149494857Y-94668476D01*
X149471047Y-94644666D01*
X149423428Y-94620857D01*
X149352000Y-94620857D01*
X149304380Y-94644666D01*
X149280571Y-94668476D01*
X149256761Y-94716095D01*
X149256761Y-94858952D01*
X149280571Y-94906571D01*
X149304380Y-94930380D01*
X149352000Y-94954190D01*
X149423428Y-94954190D01*
X148828190Y-94930380D02*
X148875809Y-94954190D01*
X148971047Y-94954190D01*
X149018666Y-94930380D01*
X149042476Y-94906571D01*
X149066285Y-94858952D01*
X149066285Y-94716095D01*
X149042476Y-94668476D01*
X149018666Y-94644666D01*
X148971047Y-94620857D01*
X148875809Y-94620857D01*
X148828190Y-94644666D01*
X148613904Y-94954190D02*
X148613904Y-94454190D01*
X148566285Y-94763714D02*
X148423428Y-94954190D01*
X148423428Y-94620857D02*
X148613904Y-94811333D01*
D11*
%TO.C,C1*%
X143385000Y-97505733D02*
X143385000Y-97848267D01*
X142365000Y-97505733D02*
X142365000Y-97848267D01*
%TO.C,C2*%
X153484733Y-93601000D02*
X153827267Y-93601000D01*
X153484733Y-92581000D02*
X153827267Y-92581000D01*
%TO.C,C3*%
X152398000Y-97223733D02*
X152398000Y-97566267D01*
X153418000Y-97223733D02*
X153418000Y-97566267D01*
%TO.C,C4*%
X155069000Y-97223733D02*
X155069000Y-97566267D01*
X154049000Y-97223733D02*
X154049000Y-97566267D01*
D12*
%TO.C,U1*%
X148987000Y-99719000D02*
X148987000Y-102719000D01*
X148987000Y-102719000D02*
X150987000Y-102719000D01*
X150987000Y-102719000D02*
X150987000Y-99719000D01*
X150987000Y-99719000D02*
X148987000Y-99719000D01*
D13*
X146612000Y-102219000D02*
G75*
G03*
X146612000Y-102219000I-125000J0D01*
G01*
D14*
%TO.C,Y1*%
X148817000Y-95570000D02*
X148817000Y-95570000D01*
X148617000Y-95570000D02*
X148617000Y-95570000D01*
D15*
X149617000Y-98620000D02*
X150017000Y-98620000D01*
X149617000Y-96120000D02*
X150017000Y-96120000D01*
D14*
X148817000Y-95570000D02*
G75*
G03*
X148617000Y-95570000I-100000J0D01*
G01*
X148617000Y-95570000D02*
G75*
G03*
X148817000Y-95570000I100000J0D01*
G01*
%TO.C,C1*%
D10*
X141910571Y-97593666D02*
X141934380Y-97569857D01*
X141958190Y-97498428D01*
X141958190Y-97450809D01*
X141934380Y-97379380D01*
X141886761Y-97331761D01*
X141839142Y-97307952D01*
X141743904Y-97284142D01*
X141672476Y-97284142D01*
X141577238Y-97307952D01*
X141529619Y-97331761D01*
X141482000Y-97379380D01*
X141458190Y-97450809D01*
X141458190Y-97498428D01*
X141482000Y-97569857D01*
X141505809Y-97593666D01*
X141958190Y-98069857D02*
X141958190Y-97784142D01*
X141958190Y-97927000D02*
X141458190Y-97927000D01*
X141529619Y-97879380D01*
X141577238Y-97831761D01*
X141601047Y-97784142D01*
%TO.C,C2*%
X153739333Y-94412571D02*
X153763142Y-94436380D01*
X153834571Y-94460190D01*
X153882190Y-94460190D01*
X153953619Y-94436380D01*
X154001238Y-94388761D01*
X154025047Y-94341142D01*
X154048857Y-94245904D01*
X154048857Y-94174476D01*
X154025047Y-94079238D01*
X154001238Y-94031619D01*
X153953619Y-93984000D01*
X153882190Y-93960190D01*
X153834571Y-93960190D01*
X153763142Y-93984000D01*
X153739333Y-94007809D01*
X153548857Y-94007809D02*
X153525047Y-93984000D01*
X153477428Y-93960190D01*
X153358380Y-93960190D01*
X153310761Y-93984000D01*
X153286952Y-94007809D01*
X153263142Y-94055428D01*
X153263142Y-94103047D01*
X153286952Y-94174476D01*
X153572666Y-94460190D01*
X153263142Y-94460190D01*
%TO.C,C3*%
X152991333Y-95555571D02*
X153015142Y-95579380D01*
X153086571Y-95603190D01*
X153134190Y-95603190D01*
X153205619Y-95579380D01*
X153253238Y-95531761D01*
X153277047Y-95484142D01*
X153300857Y-95388904D01*
X153300857Y-95317476D01*
X153277047Y-95222238D01*
X153253238Y-95174619D01*
X153205619Y-95127000D01*
X153134190Y-95103190D01*
X153086571Y-95103190D01*
X153015142Y-95127000D01*
X152991333Y-95150809D01*
X152824666Y-95103190D02*
X152515142Y-95103190D01*
X152681809Y-95293666D01*
X152610380Y-95293666D01*
X152562761Y-95317476D01*
X152538952Y-95341285D01*
X152515142Y-95388904D01*
X152515142Y-95507952D01*
X152538952Y-95555571D01*
X152562761Y-95579380D01*
X152610380Y-95603190D01*
X152753238Y-95603190D01*
X152800857Y-95579380D01*
X152824666Y-95555571D01*
%TO.C,C4*%
X154610332Y-95600570D02*
X154634141Y-95624379D01*
X154705570Y-95648189D01*
X154753189Y-95648189D01*
X154824618Y-95624379D01*
X154872237Y-95576760D01*
X154896046Y-95529141D01*
X154919856Y-95433903D01*
X154919856Y-95362475D01*
X154896046Y-95267237D01*
X154872237Y-95219618D01*
X154824618Y-95171999D01*
X154753189Y-95148189D01*
X154705570Y-95148189D01*
X154634141Y-95171999D01*
X154610332Y-95195808D01*
X154181760Y-95314856D02*
X154181760Y-95648189D01*
X154300808Y-95124379D02*
X154419856Y-95481522D01*
X154110332Y-95481522D01*
%TO.C,U1*%
D12*
X150516928Y-100935285D02*
X150516928Y-101542428D01*
X150481214Y-101613857D01*
X150445500Y-101649571D01*
X150374071Y-101685285D01*
X150231214Y-101685285D01*
X150159785Y-101649571D01*
X150124071Y-101613857D01*
X150088357Y-101542428D01*
X150088357Y-100935285D01*
X149338357Y-101685285D02*
X149766928Y-101685285D01*
X149552642Y-101685285D02*
X149552642Y-100935285D01*
X149624071Y-101042428D01*
X149695500Y-101113857D01*
X149766928Y-101149571D01*
%TO.C,Y1*%
D10*
X150055095Y-97358095D02*
X150055095Y-97596190D01*
X150221761Y-97096190D02*
X150055095Y-97358095D01*
X149888428Y-97096190D01*
X149459857Y-97596190D02*
X149745571Y-97596190D01*
X149602714Y-97596190D02*
X149602714Y-97096190D01*
X149650333Y-97167619D01*
X149697952Y-97215238D01*
X149745571Y-97239047D01*
%TD*%
M02*
