%TF.GenerationSoftware,KiCad,Pcbnew,(5.1.6)-1*%
%TF.CreationDate,2021-08-23T14:57:44-04:00*%
%TF.ProjectId,full-can-variable,66756c6c-2d63-4616-9e2d-766172696162,rev?*%
%TF.SameCoordinates,Original*%
%TF.FileFunction,Soldermask,Top*%
%TF.FilePolarity,Negative*%
%FSLAX46Y46*%
G04 Gerber Fmt 4.6, Leading zero omitted, Abs format (unit mm)*
G04 Created by KiCad (PCBNEW (5.1.6)-1) date 2021-08-23 14:57:44*
%MOMM*%
%LPD*%
G01*
G04 APERTURE LIST*
%ADD10R,1.700000X1.700000*%
%ADD11C,1.700000*%
%ADD12R,1.350000X0.700000*%
%ADD13R,1.800000X1.800000*%
%ADD14O,1.800000X1.800000*%
%ADD15R,0.900000X1.000000*%
%ADD16R,0.700000X1.300000*%
G04 APERTURE END LIST*
D10*
%TO.C,X1*%
X142959001Y-101494001D03*
D11*
X142959001Y-93874001D03*
X158199001Y-93874001D03*
X158199001Y-101494001D03*
%TD*%
D12*
%TO.C,IC1*%
X147955000Y-92969000D03*
X147955000Y-93919000D03*
X147955000Y-94869000D03*
X150455000Y-94869000D03*
X150455000Y-92969000D03*
%TD*%
D13*
%TO.C,I2C Header*%
X145288000Y-93853000D03*
D14*
X145288000Y-96393000D03*
X145288000Y-98933000D03*
X145288000Y-101473000D03*
%TD*%
D15*
%TO.C,Q1*%
X149733000Y-100108000D03*
X147833000Y-100108000D03*
X148783000Y-102108000D03*
%TD*%
%TO.C,Q2*%
X148844000Y-96536000D03*
X149794000Y-98536000D03*
X147894000Y-98536000D03*
%TD*%
%TO.C,R1*%
G36*
G01*
X151121500Y-99628000D02*
X151646500Y-99628000D01*
G75*
G02*
X151909000Y-99890500I0J-262500D01*
G01*
X151909000Y-100515500D01*
G75*
G02*
X151646500Y-100778000I-262500J0D01*
G01*
X151121500Y-100778000D01*
G75*
G02*
X150859000Y-100515500I0J262500D01*
G01*
X150859000Y-99890500D01*
G75*
G02*
X151121500Y-99628000I262500J0D01*
G01*
G37*
G36*
G01*
X151121500Y-101378000D02*
X151646500Y-101378000D01*
G75*
G02*
X151909000Y-101640500I0J-262500D01*
G01*
X151909000Y-102265500D01*
G75*
G02*
X151646500Y-102528000I-262500J0D01*
G01*
X151121500Y-102528000D01*
G75*
G02*
X150859000Y-102265500I0J262500D01*
G01*
X150859000Y-101640500D01*
G75*
G02*
X151121500Y-101378000I262500J0D01*
G01*
G37*
%TD*%
%TO.C,R2*%
G36*
G01*
X151121500Y-97822000D02*
X151646500Y-97822000D01*
G75*
G02*
X151909000Y-98084500I0J-262500D01*
G01*
X151909000Y-98709500D01*
G75*
G02*
X151646500Y-98972000I-262500J0D01*
G01*
X151121500Y-98972000D01*
G75*
G02*
X150859000Y-98709500I0J262500D01*
G01*
X150859000Y-98084500D01*
G75*
G02*
X151121500Y-97822000I262500J0D01*
G01*
G37*
G36*
G01*
X151121500Y-96072000D02*
X151646500Y-96072000D01*
G75*
G02*
X151909000Y-96334500I0J-262500D01*
G01*
X151909000Y-96959500D01*
G75*
G02*
X151646500Y-97222000I-262500J0D01*
G01*
X151121500Y-97222000D01*
G75*
G02*
X150859000Y-96959500I0J262500D01*
G01*
X150859000Y-96334500D01*
G75*
G02*
X151121500Y-96072000I262500J0D01*
G01*
G37*
%TD*%
%TO.C,R3*%
G36*
G01*
X155388000Y-101718500D02*
X155388000Y-102243500D01*
G75*
G02*
X155125500Y-102506000I-262500J0D01*
G01*
X154500500Y-102506000D01*
G75*
G02*
X154238000Y-102243500I0J262500D01*
G01*
X154238000Y-101718500D01*
G75*
G02*
X154500500Y-101456000I262500J0D01*
G01*
X155125500Y-101456000D01*
G75*
G02*
X155388000Y-101718500I0J-262500D01*
G01*
G37*
G36*
G01*
X153638000Y-101718500D02*
X153638000Y-102243500D01*
G75*
G02*
X153375500Y-102506000I-262500J0D01*
G01*
X152750500Y-102506000D01*
G75*
G02*
X152488000Y-102243500I0J262500D01*
G01*
X152488000Y-101718500D01*
G75*
G02*
X152750500Y-101456000I262500J0D01*
G01*
X153375500Y-101456000D01*
G75*
G02*
X153638000Y-101718500I0J-262500D01*
G01*
G37*
%TD*%
%TO.C,R4*%
G36*
G01*
X152848000Y-94733500D02*
X152848000Y-95258500D01*
G75*
G02*
X152585500Y-95521000I-262500J0D01*
G01*
X151960500Y-95521000D01*
G75*
G02*
X151698000Y-95258500I0J262500D01*
G01*
X151698000Y-94733500D01*
G75*
G02*
X151960500Y-94471000I262500J0D01*
G01*
X152585500Y-94471000D01*
G75*
G02*
X152848000Y-94733500I0J-262500D01*
G01*
G37*
G36*
G01*
X154598000Y-94733500D02*
X154598000Y-95258500D01*
G75*
G02*
X154335500Y-95521000I-262500J0D01*
G01*
X153710500Y-95521000D01*
G75*
G02*
X153448000Y-95258500I0J262500D01*
G01*
X153448000Y-94733500D01*
G75*
G02*
X153710500Y-94471000I262500J0D01*
G01*
X154335500Y-94471000D01*
G75*
G02*
X154598000Y-94733500I0J-262500D01*
G01*
G37*
%TD*%
D16*
%TO.C,IC2*%
X157358000Y-98532000D03*
X158308000Y-98532000D03*
X159258000Y-98532000D03*
X159258000Y-96032000D03*
X157358000Y-96032000D03*
%TD*%
M02*
