%TF.GenerationSoftware,KiCad,Pcbnew,(5.1.6)-1*%
%TF.CreationDate,2021-08-23T14:57:44-04:00*%
%TF.ProjectId,full-can-variable,66756c6c-2d63-4616-9e2d-766172696162,rev?*%
%TF.SameCoordinates,Original*%
%TF.FileFunction,Soldermask,Bot*%
%TF.FilePolarity,Negative*%
%FSLAX46Y46*%
G04 Gerber Fmt 4.6, Leading zero omitted, Abs format (unit mm)*
G04 Created by KiCad (PCBNEW (5.1.6)-1) date 2021-08-23 14:57:44*
%MOMM*%
%LPD*%
G01*
G04 APERTURE LIST*
%ADD10R,1.700000X1.700000*%
%ADD11C,1.700000*%
%ADD12R,1.800000X1.800000*%
%ADD13O,1.800000X1.800000*%
%ADD14R,1.500000X0.400000*%
%ADD15R,1.500000X1.300000*%
G04 APERTURE END LIST*
D10*
%TO.C,X1*%
X142959001Y-101494001D03*
D11*
X142959001Y-93874001D03*
X158199001Y-93874001D03*
X158199001Y-101494001D03*
%TD*%
%TO.C,C1*%
G36*
G01*
X142612500Y-96227000D02*
X143137500Y-96227000D01*
G75*
G02*
X143400000Y-96489500I0J-262500D01*
G01*
X143400000Y-97114500D01*
G75*
G02*
X143137500Y-97377000I-262500J0D01*
G01*
X142612500Y-97377000D01*
G75*
G02*
X142350000Y-97114500I0J262500D01*
G01*
X142350000Y-96489500D01*
G75*
G02*
X142612500Y-96227000I262500J0D01*
G01*
G37*
G36*
G01*
X142612500Y-97977000D02*
X143137500Y-97977000D01*
G75*
G02*
X143400000Y-98239500I0J-262500D01*
G01*
X143400000Y-98864500D01*
G75*
G02*
X143137500Y-99127000I-262500J0D01*
G01*
X142612500Y-99127000D01*
G75*
G02*
X142350000Y-98864500I0J262500D01*
G01*
X142350000Y-98239500D01*
G75*
G02*
X142612500Y-97977000I262500J0D01*
G01*
G37*
%TD*%
%TO.C,C2*%
G36*
G01*
X153956000Y-93353500D02*
X153956000Y-92828500D01*
G75*
G02*
X154218500Y-92566000I262500J0D01*
G01*
X154843500Y-92566000D01*
G75*
G02*
X155106000Y-92828500I0J-262500D01*
G01*
X155106000Y-93353500D01*
G75*
G02*
X154843500Y-93616000I-262500J0D01*
G01*
X154218500Y-93616000D01*
G75*
G02*
X153956000Y-93353500I0J262500D01*
G01*
G37*
G36*
G01*
X152206000Y-93353500D02*
X152206000Y-92828500D01*
G75*
G02*
X152468500Y-92566000I262500J0D01*
G01*
X153093500Y-92566000D01*
G75*
G02*
X153356000Y-92828500I0J-262500D01*
G01*
X153356000Y-93353500D01*
G75*
G02*
X153093500Y-93616000I-262500J0D01*
G01*
X152468500Y-93616000D01*
G75*
G02*
X152206000Y-93353500I0J262500D01*
G01*
G37*
%TD*%
%TO.C,C3*%
G36*
G01*
X152645500Y-97695000D02*
X153170500Y-97695000D01*
G75*
G02*
X153433000Y-97957500I0J-262500D01*
G01*
X153433000Y-98582500D01*
G75*
G02*
X153170500Y-98845000I-262500J0D01*
G01*
X152645500Y-98845000D01*
G75*
G02*
X152383000Y-98582500I0J262500D01*
G01*
X152383000Y-97957500D01*
G75*
G02*
X152645500Y-97695000I262500J0D01*
G01*
G37*
G36*
G01*
X152645500Y-95945000D02*
X153170500Y-95945000D01*
G75*
G02*
X153433000Y-96207500I0J-262500D01*
G01*
X153433000Y-96832500D01*
G75*
G02*
X153170500Y-97095000I-262500J0D01*
G01*
X152645500Y-97095000D01*
G75*
G02*
X152383000Y-96832500I0J262500D01*
G01*
X152383000Y-96207500D01*
G75*
G02*
X152645500Y-95945000I262500J0D01*
G01*
G37*
%TD*%
%TO.C,C4*%
G36*
G01*
X154296500Y-95945000D02*
X154821500Y-95945000D01*
G75*
G02*
X155084000Y-96207500I0J-262500D01*
G01*
X155084000Y-96832500D01*
G75*
G02*
X154821500Y-97095000I-262500J0D01*
G01*
X154296500Y-97095000D01*
G75*
G02*
X154034000Y-96832500I0J262500D01*
G01*
X154034000Y-96207500D01*
G75*
G02*
X154296500Y-95945000I262500J0D01*
G01*
G37*
G36*
G01*
X154296500Y-97695000D02*
X154821500Y-97695000D01*
G75*
G02*
X155084000Y-97957500I0J-262500D01*
G01*
X155084000Y-98582500D01*
G75*
G02*
X154821500Y-98845000I-262500J0D01*
G01*
X154296500Y-98845000D01*
G75*
G02*
X154034000Y-98582500I0J262500D01*
G01*
X154034000Y-97957500D01*
G75*
G02*
X154296500Y-97695000I262500J0D01*
G01*
G37*
%TD*%
D12*
%TO.C,I2C Header*%
X145288000Y-93853000D03*
D13*
X145288000Y-96393000D03*
X145288000Y-98933000D03*
X145288000Y-101473000D03*
%TD*%
D14*
%TO.C,U1*%
X152187000Y-102219000D03*
X152187000Y-101719000D03*
X152187000Y-101219000D03*
X152187000Y-100719000D03*
X152187000Y-100219000D03*
X147787000Y-100219000D03*
X147787000Y-100719000D03*
X147787000Y-101219000D03*
X147787000Y-101719000D03*
X147787000Y-102219000D03*
%TD*%
D15*
%TO.C,Y1*%
X148717000Y-96520000D03*
X150917000Y-96520000D03*
X150917000Y-98220000D03*
X148717000Y-98220000D03*
%TD*%
M02*
