%TF.GenerationSoftware,KiCad,Pcbnew,(5.1.6)-1*%
%TF.CreationDate,2021-08-23T14:57:43-04:00*%
%TF.ProjectId,full-can-variable,66756c6c-2d63-4616-9e2d-766172696162,rev?*%
%TF.SameCoordinates,Original*%
%TF.FileFunction,Paste,Top*%
%TF.FilePolarity,Positive*%
%FSLAX46Y46*%
G04 Gerber Fmt 4.6, Leading zero omitted, Abs format (unit mm)*
G04 Created by KiCad (PCBNEW (5.1.6)-1) date 2021-08-23 14:57:43*
%MOMM*%
%LPD*%
G01*
G04 APERTURE LIST*
%ADD10R,1.250000X0.600000*%
%ADD11R,0.800000X0.900000*%
%ADD12R,0.600000X1.200000*%
G04 APERTURE END LIST*
D10*
%TO.C,IC1*%
X147955000Y-92969000D03*
X147955000Y-93919000D03*
X147955000Y-94869000D03*
X150455000Y-94869000D03*
X150455000Y-92969000D03*
%TD*%
D11*
%TO.C,Q1*%
X149733000Y-100108000D03*
X147833000Y-100108000D03*
X148783000Y-102108000D03*
%TD*%
%TO.C,Q2*%
X148844000Y-96536000D03*
X149794000Y-98536000D03*
X147894000Y-98536000D03*
%TD*%
%TO.C,R1*%
G36*
G01*
X151146500Y-99678000D02*
X151621500Y-99678000D01*
G75*
G02*
X151859000Y-99915500I0J-237500D01*
G01*
X151859000Y-100490500D01*
G75*
G02*
X151621500Y-100728000I-237500J0D01*
G01*
X151146500Y-100728000D01*
G75*
G02*
X150909000Y-100490500I0J237500D01*
G01*
X150909000Y-99915500D01*
G75*
G02*
X151146500Y-99678000I237500J0D01*
G01*
G37*
G36*
G01*
X151146500Y-101428000D02*
X151621500Y-101428000D01*
G75*
G02*
X151859000Y-101665500I0J-237500D01*
G01*
X151859000Y-102240500D01*
G75*
G02*
X151621500Y-102478000I-237500J0D01*
G01*
X151146500Y-102478000D01*
G75*
G02*
X150909000Y-102240500I0J237500D01*
G01*
X150909000Y-101665500D01*
G75*
G02*
X151146500Y-101428000I237500J0D01*
G01*
G37*
%TD*%
%TO.C,R2*%
G36*
G01*
X151146500Y-97872000D02*
X151621500Y-97872000D01*
G75*
G02*
X151859000Y-98109500I0J-237500D01*
G01*
X151859000Y-98684500D01*
G75*
G02*
X151621500Y-98922000I-237500J0D01*
G01*
X151146500Y-98922000D01*
G75*
G02*
X150909000Y-98684500I0J237500D01*
G01*
X150909000Y-98109500D01*
G75*
G02*
X151146500Y-97872000I237500J0D01*
G01*
G37*
G36*
G01*
X151146500Y-96122000D02*
X151621500Y-96122000D01*
G75*
G02*
X151859000Y-96359500I0J-237500D01*
G01*
X151859000Y-96934500D01*
G75*
G02*
X151621500Y-97172000I-237500J0D01*
G01*
X151146500Y-97172000D01*
G75*
G02*
X150909000Y-96934500I0J237500D01*
G01*
X150909000Y-96359500D01*
G75*
G02*
X151146500Y-96122000I237500J0D01*
G01*
G37*
%TD*%
%TO.C,R3*%
G36*
G01*
X155338000Y-101743500D02*
X155338000Y-102218500D01*
G75*
G02*
X155100500Y-102456000I-237500J0D01*
G01*
X154525500Y-102456000D01*
G75*
G02*
X154288000Y-102218500I0J237500D01*
G01*
X154288000Y-101743500D01*
G75*
G02*
X154525500Y-101506000I237500J0D01*
G01*
X155100500Y-101506000D01*
G75*
G02*
X155338000Y-101743500I0J-237500D01*
G01*
G37*
G36*
G01*
X153588000Y-101743500D02*
X153588000Y-102218500D01*
G75*
G02*
X153350500Y-102456000I-237500J0D01*
G01*
X152775500Y-102456000D01*
G75*
G02*
X152538000Y-102218500I0J237500D01*
G01*
X152538000Y-101743500D01*
G75*
G02*
X152775500Y-101506000I237500J0D01*
G01*
X153350500Y-101506000D01*
G75*
G02*
X153588000Y-101743500I0J-237500D01*
G01*
G37*
%TD*%
%TO.C,R4*%
G36*
G01*
X152798000Y-94758500D02*
X152798000Y-95233500D01*
G75*
G02*
X152560500Y-95471000I-237500J0D01*
G01*
X151985500Y-95471000D01*
G75*
G02*
X151748000Y-95233500I0J237500D01*
G01*
X151748000Y-94758500D01*
G75*
G02*
X151985500Y-94521000I237500J0D01*
G01*
X152560500Y-94521000D01*
G75*
G02*
X152798000Y-94758500I0J-237500D01*
G01*
G37*
G36*
G01*
X154548000Y-94758500D02*
X154548000Y-95233500D01*
G75*
G02*
X154310500Y-95471000I-237500J0D01*
G01*
X153735500Y-95471000D01*
G75*
G02*
X153498000Y-95233500I0J237500D01*
G01*
X153498000Y-94758500D01*
G75*
G02*
X153735500Y-94521000I237500J0D01*
G01*
X154310500Y-94521000D01*
G75*
G02*
X154548000Y-94758500I0J-237500D01*
G01*
G37*
%TD*%
D12*
%TO.C,IC2*%
X157358000Y-98532000D03*
X158308000Y-98532000D03*
X159258000Y-98532000D03*
X159258000Y-96032000D03*
X157358000Y-96032000D03*
%TD*%
M02*
