%TF.GenerationSoftware,KiCad,Pcbnew,(5.1.6)-1*%
%TF.CreationDate,2021-08-23T14:57:44-04:00*%
%TF.ProjectId,full-can-variable,66756c6c-2d63-4616-9e2d-766172696162,rev?*%
%TF.SameCoordinates,Original*%
%TF.FileFunction,Legend,Top*%
%TF.FilePolarity,Positive*%
%FSLAX46Y46*%
G04 Gerber Fmt 4.6, Leading zero omitted, Abs format (unit mm)*
G04 Created by KiCad (PCBNEW (5.1.6)-1) date 2021-08-23 14:57:44*
%MOMM*%
%LPD*%
G01*
G04 APERTURE LIST*
%ADD10C,0.125000*%
%ADD11C,0.200000*%
%ADD12C,0.120000*%
G04 APERTURE END LIST*
D10*
X143135130Y-96203690D02*
X142897035Y-96203690D01*
X142873226Y-96441785D01*
X142897035Y-96417976D01*
X142944654Y-96394166D01*
X143063702Y-96394166D01*
X143111321Y-96417976D01*
X143135130Y-96441785D01*
X143158940Y-96489404D01*
X143158940Y-96608452D01*
X143135130Y-96656071D01*
X143111321Y-96679880D01*
X143063702Y-96703690D01*
X142944654Y-96703690D01*
X142897035Y-96679880D01*
X142873226Y-96656071D01*
X143301797Y-96203690D02*
X143468464Y-96703690D01*
X143635130Y-96203690D01*
X142539892Y-97102500D02*
X142492273Y-97078690D01*
X142420845Y-97078690D01*
X142349416Y-97102500D01*
X142301797Y-97150119D01*
X142277988Y-97197738D01*
X142254178Y-97292976D01*
X142254178Y-97364404D01*
X142277988Y-97459642D01*
X142301797Y-97507261D01*
X142349416Y-97554880D01*
X142420845Y-97578690D01*
X142468464Y-97578690D01*
X142539892Y-97554880D01*
X142563702Y-97531071D01*
X142563702Y-97364404D01*
X142468464Y-97364404D01*
X142777988Y-97578690D02*
X142777988Y-97078690D01*
X143063702Y-97578690D01*
X143063702Y-97078690D01*
X143301797Y-97578690D02*
X143301797Y-97078690D01*
X143420845Y-97078690D01*
X143492273Y-97102500D01*
X143539892Y-97150119D01*
X143563702Y-97197738D01*
X143587511Y-97292976D01*
X143587511Y-97364404D01*
X143563702Y-97459642D01*
X143539892Y-97507261D01*
X143492273Y-97554880D01*
X143420845Y-97578690D01*
X143301797Y-97578690D01*
X142397035Y-98429880D02*
X142468464Y-98453690D01*
X142587511Y-98453690D01*
X142635130Y-98429880D01*
X142658940Y-98406071D01*
X142682750Y-98358452D01*
X142682750Y-98310833D01*
X142658940Y-98263214D01*
X142635130Y-98239404D01*
X142587511Y-98215595D01*
X142492273Y-98191785D01*
X142444654Y-98167976D01*
X142420845Y-98144166D01*
X142397035Y-98096547D01*
X142397035Y-98048928D01*
X142420845Y-98001309D01*
X142444654Y-97977500D01*
X142492273Y-97953690D01*
X142611321Y-97953690D01*
X142682750Y-97977500D01*
X143182750Y-98406071D02*
X143158940Y-98429880D01*
X143087511Y-98453690D01*
X143039892Y-98453690D01*
X142968464Y-98429880D01*
X142920845Y-98382261D01*
X142897035Y-98334642D01*
X142873226Y-98239404D01*
X142873226Y-98167976D01*
X142897035Y-98072738D01*
X142920845Y-98025119D01*
X142968464Y-97977500D01*
X143039892Y-97953690D01*
X143087511Y-97953690D01*
X143158940Y-97977500D01*
X143182750Y-98001309D01*
X143635130Y-98453690D02*
X143397035Y-98453690D01*
X143397035Y-97953690D01*
X142373226Y-99304880D02*
X142444654Y-99328690D01*
X142563702Y-99328690D01*
X142611321Y-99304880D01*
X142635130Y-99281071D01*
X142658940Y-99233452D01*
X142658940Y-99185833D01*
X142635130Y-99138214D01*
X142611321Y-99114404D01*
X142563702Y-99090595D01*
X142468464Y-99066785D01*
X142420845Y-99042976D01*
X142397035Y-99019166D01*
X142373226Y-98971547D01*
X142373226Y-98923928D01*
X142397035Y-98876309D01*
X142420845Y-98852500D01*
X142468464Y-98828690D01*
X142587511Y-98828690D01*
X142658940Y-98852500D01*
X142873226Y-99328690D02*
X142873226Y-98828690D01*
X142992273Y-98828690D01*
X143063702Y-98852500D01*
X143111321Y-98900119D01*
X143135130Y-98947738D01*
X143158940Y-99042976D01*
X143158940Y-99114404D01*
X143135130Y-99209642D01*
X143111321Y-99257261D01*
X143063702Y-99304880D01*
X142992273Y-99328690D01*
X142873226Y-99328690D01*
X143349416Y-99185833D02*
X143587511Y-99185833D01*
X143301797Y-99328690D02*
X143468464Y-98828690D01*
X143635130Y-99328690D01*
X159464380Y-92777476D02*
X159416761Y-92753666D01*
X159392952Y-92729857D01*
X159369142Y-92682238D01*
X159369142Y-92658428D01*
X159392952Y-92610809D01*
X159416761Y-92587000D01*
X159464380Y-92563190D01*
X159559619Y-92563190D01*
X159607238Y-92587000D01*
X159631047Y-92610809D01*
X159654857Y-92658428D01*
X159654857Y-92682238D01*
X159631047Y-92729857D01*
X159607238Y-92753666D01*
X159559619Y-92777476D01*
X159464380Y-92777476D01*
X159416761Y-92801285D01*
X159392952Y-92825095D01*
X159369142Y-92872714D01*
X159369142Y-92967952D01*
X159392952Y-93015571D01*
X159416761Y-93039380D01*
X159464380Y-93063190D01*
X159559619Y-93063190D01*
X159607238Y-93039380D01*
X159631047Y-93015571D01*
X159654857Y-92967952D01*
X159654857Y-92872714D01*
X159631047Y-92825095D01*
X159607238Y-92801285D01*
X159559619Y-92777476D01*
X159345333Y-102342190D02*
X159678666Y-102342190D01*
X159464380Y-102842190D01*
X141763761Y-93063190D02*
X141478047Y-93063190D01*
X141620904Y-93063190D02*
X141620904Y-92563190D01*
X141573285Y-92634619D01*
X141525666Y-92682238D01*
X141478047Y-92706047D01*
X142192333Y-92729857D02*
X142192333Y-93063190D01*
X142073285Y-92539380D02*
X141954238Y-92896523D01*
X142263761Y-92896523D01*
X141747857Y-102842190D02*
X141462142Y-102842190D01*
X141605000Y-102842190D02*
X141605000Y-102342190D01*
X141557380Y-102413619D01*
X141509761Y-102461238D01*
X141462142Y-102485047D01*
D11*
%TO.C,IC1*%
X147330000Y-92419000D02*
X148580000Y-92419000D01*
X148930000Y-95419000D02*
X148930000Y-92419000D01*
X149480000Y-95419000D02*
X148930000Y-95419000D01*
X149480000Y-92419000D02*
X149480000Y-95419000D01*
X148930000Y-92419000D02*
X149480000Y-92419000D01*
D12*
%TO.C,I2C Header*%
X143958000Y-92523000D02*
X145288000Y-92523000D01*
X143958000Y-93853000D02*
X143958000Y-92523000D01*
X143958000Y-95123000D02*
X146618000Y-95123000D01*
X146618000Y-95123000D02*
X146618000Y-102803000D01*
X143958000Y-95123000D02*
X143958000Y-102803000D01*
X143958000Y-102803000D02*
X146618000Y-102803000D01*
%TO.C,Q1*%
X147203000Y-101868000D02*
X147203000Y-100408000D01*
X150363000Y-101868000D02*
X150363000Y-99708000D01*
X150363000Y-101868000D02*
X149433000Y-101868000D01*
X147203000Y-101868000D02*
X148133000Y-101868000D01*
%TO.C,Q2*%
X150424000Y-96776000D02*
X149494000Y-96776000D01*
X147264000Y-96776000D02*
X148194000Y-96776000D01*
X147264000Y-96776000D02*
X147264000Y-98936000D01*
X150424000Y-96776000D02*
X150424000Y-98236000D01*
%TO.C,R1*%
X150874000Y-100906733D02*
X150874000Y-101249267D01*
X151894000Y-100906733D02*
X151894000Y-101249267D01*
%TO.C,R2*%
X151894000Y-97350733D02*
X151894000Y-97693267D01*
X150874000Y-97350733D02*
X150874000Y-97693267D01*
%TO.C,R3*%
X154109267Y-101471000D02*
X153766733Y-101471000D01*
X154109267Y-102491000D02*
X153766733Y-102491000D01*
%TO.C,R4*%
X153319267Y-95506000D02*
X152976733Y-95506000D01*
X153319267Y-94486000D02*
X152976733Y-94486000D01*
D11*
%TO.C,IC2*%
X156858000Y-97582000D02*
X156858000Y-96982000D01*
X156858000Y-96982000D02*
X159758000Y-96982000D01*
X159758000Y-96982000D02*
X159758000Y-97582000D01*
X159758000Y-97582000D02*
X156858000Y-97582000D01*
X156808000Y-99132000D02*
X156808000Y-97932000D01*
%TO.C,IC1*%
D10*
X150260904Y-94206190D02*
X150260904Y-93706190D01*
X150784714Y-94158571D02*
X150760904Y-94182380D01*
X150689476Y-94206190D01*
X150641857Y-94206190D01*
X150570428Y-94182380D01*
X150522809Y-94134761D01*
X150499000Y-94087142D01*
X150475190Y-93991904D01*
X150475190Y-93920476D01*
X150499000Y-93825238D01*
X150522809Y-93777619D01*
X150570428Y-93730000D01*
X150641857Y-93706190D01*
X150689476Y-93706190D01*
X150760904Y-93730000D01*
X150784714Y-93753809D01*
X151260904Y-94206190D02*
X150975190Y-94206190D01*
X151118047Y-94206190D02*
X151118047Y-93706190D01*
X151070428Y-93777619D01*
X151022809Y-93825238D01*
X150975190Y-93849047D01*
%TO.C,I2C Header*%
X141958190Y-99766190D02*
X141458190Y-99766190D01*
X141505809Y-99551904D02*
X141482000Y-99528095D01*
X141458190Y-99480476D01*
X141458190Y-99361428D01*
X141482000Y-99313809D01*
X141505809Y-99290000D01*
X141553428Y-99266190D01*
X141601047Y-99266190D01*
X141672476Y-99290000D01*
X141958190Y-99575714D01*
X141958190Y-99266190D01*
X141910571Y-98766190D02*
X141934380Y-98790000D01*
X141958190Y-98861428D01*
X141958190Y-98909047D01*
X141934380Y-98980476D01*
X141886761Y-99028095D01*
X141839142Y-99051904D01*
X141743904Y-99075714D01*
X141672476Y-99075714D01*
X141577238Y-99051904D01*
X141529619Y-99028095D01*
X141482000Y-98980476D01*
X141458190Y-98909047D01*
X141458190Y-98861428D01*
X141482000Y-98790000D01*
X141505809Y-98766190D01*
X141958190Y-98170952D02*
X141458190Y-98170952D01*
X141696285Y-98170952D02*
X141696285Y-97885238D01*
X141958190Y-97885238D02*
X141458190Y-97885238D01*
X141934380Y-97456666D02*
X141958190Y-97504285D01*
X141958190Y-97599523D01*
X141934380Y-97647142D01*
X141886761Y-97670952D01*
X141696285Y-97670952D01*
X141648666Y-97647142D01*
X141624857Y-97599523D01*
X141624857Y-97504285D01*
X141648666Y-97456666D01*
X141696285Y-97432857D01*
X141743904Y-97432857D01*
X141791523Y-97670952D01*
X141958190Y-97004285D02*
X141696285Y-97004285D01*
X141648666Y-97028095D01*
X141624857Y-97075714D01*
X141624857Y-97170952D01*
X141648666Y-97218571D01*
X141934380Y-97004285D02*
X141958190Y-97051904D01*
X141958190Y-97170952D01*
X141934380Y-97218571D01*
X141886761Y-97242380D01*
X141839142Y-97242380D01*
X141791523Y-97218571D01*
X141767714Y-97170952D01*
X141767714Y-97051904D01*
X141743904Y-97004285D01*
X141958190Y-96551904D02*
X141458190Y-96551904D01*
X141934380Y-96551904D02*
X141958190Y-96599523D01*
X141958190Y-96694761D01*
X141934380Y-96742380D01*
X141910571Y-96766190D01*
X141862952Y-96790000D01*
X141720095Y-96790000D01*
X141672476Y-96766190D01*
X141648666Y-96742380D01*
X141624857Y-96694761D01*
X141624857Y-96599523D01*
X141648666Y-96551904D01*
X141934380Y-96123333D02*
X141958190Y-96170952D01*
X141958190Y-96266190D01*
X141934380Y-96313809D01*
X141886761Y-96337619D01*
X141696285Y-96337619D01*
X141648666Y-96313809D01*
X141624857Y-96266190D01*
X141624857Y-96170952D01*
X141648666Y-96123333D01*
X141696285Y-96099523D01*
X141743904Y-96099523D01*
X141791523Y-96337619D01*
X141958190Y-95885238D02*
X141624857Y-95885238D01*
X141720095Y-95885238D02*
X141672476Y-95861428D01*
X141648666Y-95837619D01*
X141624857Y-95790000D01*
X141624857Y-95742380D01*
%TO.C,Q1*%
X148796380Y-101397809D02*
X148748761Y-101374000D01*
X148701142Y-101326380D01*
X148629714Y-101254952D01*
X148582095Y-101231142D01*
X148534476Y-101231142D01*
X148558285Y-101350190D02*
X148510666Y-101326380D01*
X148463047Y-101278761D01*
X148439238Y-101183523D01*
X148439238Y-101016857D01*
X148463047Y-100921619D01*
X148510666Y-100874000D01*
X148558285Y-100850190D01*
X148653523Y-100850190D01*
X148701142Y-100874000D01*
X148748761Y-100921619D01*
X148772571Y-101016857D01*
X148772571Y-101183523D01*
X148748761Y-101278761D01*
X148701142Y-101326380D01*
X148653523Y-101350190D01*
X148558285Y-101350190D01*
X149248761Y-101350190D02*
X148963047Y-101350190D01*
X149105904Y-101350190D02*
X149105904Y-100850190D01*
X149058285Y-100921619D01*
X149010666Y-100969238D01*
X148963047Y-100993047D01*
%TO.C,Q2*%
X148730380Y-97793809D02*
X148682761Y-97770000D01*
X148635142Y-97722380D01*
X148563714Y-97650952D01*
X148516095Y-97627142D01*
X148468476Y-97627142D01*
X148492285Y-97746190D02*
X148444666Y-97722380D01*
X148397047Y-97674761D01*
X148373238Y-97579523D01*
X148373238Y-97412857D01*
X148397047Y-97317619D01*
X148444666Y-97270000D01*
X148492285Y-97246190D01*
X148587523Y-97246190D01*
X148635142Y-97270000D01*
X148682761Y-97317619D01*
X148706571Y-97412857D01*
X148706571Y-97579523D01*
X148682761Y-97674761D01*
X148635142Y-97722380D01*
X148587523Y-97746190D01*
X148492285Y-97746190D01*
X148897047Y-97293809D02*
X148920857Y-97270000D01*
X148968476Y-97246190D01*
X149087523Y-97246190D01*
X149135142Y-97270000D01*
X149158952Y-97293809D01*
X149182761Y-97341428D01*
X149182761Y-97389047D01*
X149158952Y-97460476D01*
X148873238Y-97746190D01*
X149182761Y-97746190D01*
%TO.C,R1*%
X152443666Y-101318190D02*
X152277000Y-101080095D01*
X152157952Y-101318190D02*
X152157952Y-100818190D01*
X152348428Y-100818190D01*
X152396047Y-100842000D01*
X152419857Y-100865809D01*
X152443666Y-100913428D01*
X152443666Y-100984857D01*
X152419857Y-101032476D01*
X152396047Y-101056285D01*
X152348428Y-101080095D01*
X152157952Y-101080095D01*
X152919857Y-101318190D02*
X152634142Y-101318190D01*
X152777000Y-101318190D02*
X152777000Y-100818190D01*
X152729380Y-100889619D01*
X152681761Y-100937238D01*
X152634142Y-100961047D01*
%TO.C,R2*%
X152443666Y-97762190D02*
X152277000Y-97524095D01*
X152157952Y-97762190D02*
X152157952Y-97262190D01*
X152348428Y-97262190D01*
X152396047Y-97286000D01*
X152419857Y-97309809D01*
X152443666Y-97357428D01*
X152443666Y-97428857D01*
X152419857Y-97476476D01*
X152396047Y-97500285D01*
X152348428Y-97524095D01*
X152157952Y-97524095D01*
X152634142Y-97309809D02*
X152657952Y-97286000D01*
X152705571Y-97262190D01*
X152824619Y-97262190D01*
X152872238Y-97286000D01*
X152896047Y-97309809D01*
X152919857Y-97357428D01*
X152919857Y-97405047D01*
X152896047Y-97476476D01*
X152610333Y-97762190D01*
X152919857Y-97762190D01*
%TO.C,R3*%
X155999666Y-102207190D02*
X155833000Y-101969095D01*
X155713952Y-102207190D02*
X155713952Y-101707190D01*
X155904428Y-101707190D01*
X155952047Y-101731000D01*
X155975857Y-101754809D01*
X155999666Y-101802428D01*
X155999666Y-101873857D01*
X155975857Y-101921476D01*
X155952047Y-101945285D01*
X155904428Y-101969095D01*
X155713952Y-101969095D01*
X156166333Y-101707190D02*
X156475857Y-101707190D01*
X156309190Y-101897666D01*
X156380619Y-101897666D01*
X156428238Y-101921476D01*
X156452047Y-101945285D01*
X156475857Y-101992904D01*
X156475857Y-102111952D01*
X156452047Y-102159571D01*
X156428238Y-102183380D01*
X156380619Y-102207190D01*
X156237761Y-102207190D01*
X156190142Y-102183380D01*
X156166333Y-102159571D01*
%TO.C,R4*%
X155237666Y-95222190D02*
X155071000Y-94984095D01*
X154951952Y-95222190D02*
X154951952Y-94722190D01*
X155142428Y-94722190D01*
X155190047Y-94746000D01*
X155213857Y-94769809D01*
X155237666Y-94817428D01*
X155237666Y-94888857D01*
X155213857Y-94936476D01*
X155190047Y-94960285D01*
X155142428Y-94984095D01*
X154951952Y-94984095D01*
X155666238Y-94888857D02*
X155666238Y-95222190D01*
X155547190Y-94698380D02*
X155428142Y-95055523D01*
X155737666Y-95055523D01*
%TO.C,IC2*%
X158534190Y-96246095D02*
X158034190Y-96246095D01*
X158486571Y-95722285D02*
X158510380Y-95746095D01*
X158534190Y-95817523D01*
X158534190Y-95865142D01*
X158510380Y-95936571D01*
X158462761Y-95984190D01*
X158415142Y-96008000D01*
X158319904Y-96031809D01*
X158248476Y-96031809D01*
X158153238Y-96008000D01*
X158105619Y-95984190D01*
X158058000Y-95936571D01*
X158034190Y-95865142D01*
X158034190Y-95817523D01*
X158058000Y-95746095D01*
X158081809Y-95722285D01*
X158081809Y-95531809D02*
X158058000Y-95508000D01*
X158034190Y-95460380D01*
X158034190Y-95341333D01*
X158058000Y-95293714D01*
X158081809Y-95269904D01*
X158129428Y-95246095D01*
X158177047Y-95246095D01*
X158248476Y-95269904D01*
X158534190Y-95555619D01*
X158534190Y-95246095D01*
%TD*%
M02*
